<svg width="24" height="24" fill="none" xmlns="http://www.w3.org/2000/svg"><path d="M14.707 5.112c.67.095 1.326.263 1.974.463 1.132.348 2.2.832 3.203 1.46.07.043.164.07.246.07 1.18.006 2.358.004 3.537.005.095 0 .19.01.284.015 0 .024.003.033 0 .039l-.166.252c-.4.614-.742 1.256-.944 1.965-.022.077-.027.14.025.215 1.05 1.508 1.385 3.163.946 4.947-.385 1.565-1.282 2.785-2.645 3.65-.974.617-2.05.911-3.2.917a5.584 5.584 0 01-1.436-.184 6.021 6.021 0 01-2.947-1.74c-.107-.113-.208-.232-.322-.361l-1.286 1.916-1.264-1.89c-.028.016-.037.018-.042.023a.188.188 0 00-.025.026c-.983 1.16-2.219 1.872-3.724 2.11a5.818 5.818 0 01-2.481-.14 5.914 5.914 0 01-2.924-1.822A5.91 5.91 0 01.08 13.993c-.207-1.08.045-2.123.108-2.376.182-.736.5-1.41.936-2.032a.234.234 0 00.026-.174C.973 8.759.666 8.166.308 7.598c-.091-.144-.2-.278-.301-.416v-.049c.02.003.04.007.06.007 1.206 0 2.413 0 3.62-.002a.306.306 0 00.155-.05 13.002 13.002 0 012.7-1.31c.685-.242 1.384-.43 2.097-.569a16.79 16.79 0 012.084-.273c1.71-.132 3.075.05 3.984.176zm-1.513 7.97c0 2.65 2.15 4.815 4.79 4.805 2.651-.01 4.791-2.114 4.79-4.793-.002-2.76-2.242-4.836-4.892-4.783-2.616.055-4.664 2.163-4.688 4.771zM6.01 8.293c-2.578-.022-4.825 2.129-4.78 4.87a4.787 4.787 0 009.575-.065A4.779 4.779 0 006.01 8.293zm.237-1.25c1.456.089 2.735.596 3.816 1.58 1.079.98 1.71 2.204 1.94 3.642.236-1.421.851-2.634 1.91-3.605 1.06-.972 2.322-1.482 3.754-1.59-1.7-.755-3.492-1.076-5.337-1.112-2.096-.04-4.135.268-6.083 1.085z" fill="#fff"/><path d="M17.975 10.059a2.957 2.957 0 012.968 2.957 2.97 2.97 0 11-5.942.007c.002-1.682 1.388-2.992 2.974-2.964zm1.934 2.964a1.935 1.935 0 00-1.926-1.938 1.947 1.947 0 00-1.952 1.93 1.956 1.956 0 001.938 1.947 1.943 1.943 0 001.94-1.94zM5.945 10.059a2.956 2.956 0 012.965 2.96 2.972 2.972 0 11-5.942.001c.004-1.694 1.4-2.99 2.977-2.961zm1.933 2.958a1.937 1.937 0 00-1.96-1.931c-1.046.002-1.924.885-1.921 1.937a1.958 1.958 0 001.946 1.94 1.949 1.949 0 001.935-1.946z" fill="#fff"/><path d="M17.977 12.04a.984.984 0 01.006 1.965.98.98 0 01-.992-.974.976.976 0 01.986-.992zM5.94 12.03a.992.992 0 11.003 1.985.98.98 0 01-.995-.998c0-.555.432-.986.992-.987z" fill="#fff"/></svg>