<svg width="24" height="24" fill="none" xmlns="http://www.w3.org/2000/svg"><path d="M12.302 1.701c-.03-.434-.101-1.45-1.315-1.668-1.2-.216-4.278.685-5.455 1.35-.493.28-.853.722-.962 1.184-.084.352-.021.708.176 1.002.5.746 4.572 7.432 5.231 8.12.418.436 1.008.637 1.584.496.55-.134.98-.562 1.15-1.144.269-.918-.27-7.211-.409-9.34zm-.944 8.954c-.018.057-.057.145-.13.164-.07.016-.157-.022-.234-.103-.503-.535-4.477-7.007-5.036-7.866a.762.762 0 01.266-.242c1.08-.61 3.78-1.323 4.514-1.19.067.011.1.026.113.032.027.06.04.24.048.35.078 1.065.618 8.05.46 8.855zm-7.5-.008c-.297.16-.692.513-.89 1.292-.27 1.065-.367 2.983-.055 4.222.209.832.968 1.328 1.77 1.147.37-.083 4.316-1.342 5.104-1.593.704-.225 1.143-.914 1.093-1.714-.043-.694-.404-1.215-1.018-1.47-2.6-1.076-3.88-1.614-4.857-1.96a1.407 1.407 0 00-1.147.076zm.658 1.245c.005 0 .01.003.02.006 1.002.354 2.405.947 4.788 1.934.075.03.14.058.152.257.01.152-.034.259-.117.285-1.782.57-4.71 1.497-4.985 1.562-.06.014-.091-.096-.097-.118-.223-.886-.197-2.537.055-3.534.066-.258.15-.367.184-.392zm14.249-4.627c-.411-.381-.916-.585-1.384-.56a1.36 1.36 0 00-.973.48c-.1.114-.997 1.307-1.705 2.27-1.682 2.292-1.709 2.453-1.742 2.658-.09.551.114 1.142.53 1.543.423.405 1 .567 1.584.447.176-.036 4.935-1.248 4.977-1.259.538-.14.804-.47.932-.721.225-.441.216-1-.025-1.615-.416-1.064-1.38-2.489-2.194-3.243zm.969 4.205a.274.274 0 01-.038.013c-.242.063-4.659 1.185-4.909 1.243a.344.344 0 01-.322-.086.388.388 0 01-.117-.236c.39-.671 2.842-3.948 3.12-4.294.05.003.187.044.34.187.66.61 1.502 1.857 1.84 2.723.099.25.096.4.086.45zm.134 4.734c-1.488-.496-2.977-.99-4.467-1.484-.75-.25-1.493.013-1.937.685-.383.577-.403 1.236-.057 1.806 1.159 1.904 1.92 3.113 2.207 3.583.456.743.904 1.497 1.774 1.497.534 0 .981-.317 1.285-.57.839-.7 1.865-2.005 2.335-2.972.302-.62.359-1.135.175-1.572-.262-.622-.92-.841-1.315-.973zm-.125 1.93c-.39.8-1.274 1.925-1.971 2.507-.215.179-.332.226-.373.239-.17-.113-2.154-3.355-2.79-4.4-.046-.076-.073-.147.028-.299.076-.114.143-.148.211-.148.036 0 .073.01.11.022 1.49.494 2.978.988 4.466 1.484.24.08.393.144.456.19-.003.049-.025.172-.137.405zm-8.26-2.418c-.673-.174-1.281.011-1.712.522-2.587 3.064-2.98 3.556-3.376 4.093-.332.453-.332.87-.273 1.14.109.503.504.938 1.21 1.332.641.358 1.363.655 2.206.906.52.155 1.076.291 1.585.291 1.058 0 1.628-.626 1.63-1.536.005-1.23.003-1.744 0-5.19 0-.736-.51-1.362-1.27-1.558zm-.144 6.854c-.08.032-.392.091-1.398-.21a9.46 9.46 0 01-1.924-.786c-.347-.194-.468-.328-.507-.382.254-.413 2.894-3.524 3.336-4.046.054-.065.098-.116.285-.068.139.036.218.107.218.197.005 5.46.006 5.23-.01 5.295z" fill="#fff"/></svg>