<svg width="24" height="25" fill="none" xmlns="http://www.w3.org/2000/svg"><g clip-path="url(#clip0)"><path d="M13.62 24H9.77a1.168 1.168 0 01-1.167-1.166v-8.686H6.356A1.168 1.168 0 015.19 12.98V9.26c0-.643.523-1.166 1.166-1.166h2.247V6.229c0-1.848.58-3.42 1.678-4.547C11.384.551 12.924-.047 14.737-.047l2.937.005a1.168 1.168 0 011.164 1.166V4.58c0 .643-.523 1.167-1.166 1.167h-1.977c-.603 0-.757.121-.79.158-.054.062-.118.235-.118.715v1.473h2.737c.206 0 .405.05.577.146.37.207.6.598.6 1.02l-.002 3.722c0 .643-.523 1.167-1.166 1.167h-2.746v8.686c0 .643-.523 1.166-1.167 1.166zm-3.607-1.41h3.364v-9.073c0-.43.35-.78.779-.78h3.134l.001-3.234h-3.135a.78.78 0 01-.779-.78V6.62c0-.55.056-1.177.472-1.648.502-.569 1.294-.634 1.846-.634l1.734-.001v-2.97l-2.693-.004c-2.913 0-4.723 1.865-4.723 4.866v2.495a.78.78 0 01-.779.779H6.6v3.235h2.634c.43 0 .779.35.779.779v9.073zM17.67 1.368z" fill="#fff"/></g><defs><clipPath id="clip0"><path fill="#fff" d="M0 0h24v24.047H0z"/></clipPath></defs></svg>