<svg width="24" height="25" fill="none" xmlns="http://www.w3.org/2000/svg"><g clip-path="url(#clip0)"><path d="M23.79 9.806a.703.703 0 00-.691-.572H12a.703.703 0 00-.703.704v4.218c0 .389.315.703.703.703h5.669a6.467 6.467 0 01-1.777 2.187.704.704 0 00-.172.127l-.016.017A6.27 6.27 0 0112 18.421c-3.528 0-6.375-2.874-6.375-6.375 0-3.503 2.849-6.375 6.375-6.375 1.339 0 2.65.454 3.794 1.314.28.21.672.183.92-.065l3-3a.703.703 0 00-.045-1.036C17.486 1.055 14.762.047 12 .047 8.812.047 5.803 1.3 3.528 3.575 1.253 5.85 0 8.86 0 12.047c0 3.188 1.253 6.197 3.528 8.472 2.275 2.275 5.284 3.528 8.472 3.528 3.188 0 6.197-1.253 8.472-3.528C22.747 18.244 24 15.235 24 12.047c0-.753-.07-1.507-.21-2.241zM12 1.453c2.184 0 4.343.718 6.158 2.035l-2.022 2.023C14.869 4.694 13.45 4.266 12 4.266a7.722 7.722 0 00-5.49 2.29 7.902 7.902 0 00-1.377 1.848L3.075 6.346A10.595 10.595 0 0112 1.453zM2.371 7.631L4.55 9.81a7.702 7.702 0 00-.33 2.238c0 .768.113 1.52.33 2.237l-2.178 2.178a10.531 10.531 0 01-.965-4.415c0-1.575.346-3.07.965-4.416zm.704 10.117l2.058-2.059c.36.67.822 1.293 1.377 1.848A7.722 7.722 0 0012 19.828a7.584 7.584 0 004.15-1.23l2.04 2.04A10.537 10.537 0 0112 22.641c-3.744 0-7.04-1.953-8.925-4.893zm16.203 1.99l-2.013-2.014a7.917 7.917 0 002.114-3.356.703.703 0 00-.671-.915h-6.005v-2.812H22.5a10.565 10.565 0 01-3.222 9.097z" fill="#fff"/></g><defs><clipPath id="clip0"><path fill="#fff" transform="translate(0 .047)" d="M0 0h24v24H0z"/></clipPath></defs></svg>