<svg width="24" height="24" viewBox="0 0 24 24" fill="none" xmlns="http://www.w3.org/2000/svg">
<path d="M14.7072 5.11244C15.377 5.20715 16.033 5.37541 16.6812 5.57458C17.8127 5.92302 18.8804 6.40708 19.8845 7.03505C19.9544 7.07839 20.0477 7.1059 20.13 7.1059C21.3095 7.11077 22.4884 7.10907 23.6669 7.11004C23.7619 7.11004 23.8564 7.12003 23.9511 7.12538C23.9511 7.14851 23.9545 7.15825 23.9506 7.16361C23.8956 7.24835 23.8398 7.33186 23.7845 7.41635C23.3845 8.02995 23.0426 8.6718 22.8408 9.38133C22.8189 9.45755 22.8142 9.52134 22.8659 9.59609C23.9158 11.1038 24.2508 12.759 23.8121 14.5434C23.4273 16.1083 22.5303 17.3284 21.1673 18.1923C20.193 18.8101 19.1168 19.1042 17.967 19.1105C17.484 19.1135 17.0033 19.0484 16.5314 18.9262C15.3816 18.6279 14.396 18.0547 13.5837 17.1867C13.4766 17.0727 13.3758 16.9537 13.2616 16.8249C12.832 17.465 12.4093 18.0947 11.9764 18.7409C11.5452 18.0966 11.1283 17.473 10.7125 16.8519C10.6837 16.867 10.6754 16.8687 10.6698 16.8741C10.6603 16.8819 10.6523 16.8913 10.6448 16.9004C9.66227 18.0606 8.42631 18.7718 6.92056 19.0097C6.08295 19.1424 5.25337 19.0947 4.43986 18.8704C3.28693 18.5537 2.30712 17.9454 1.51553 17.0479C0.741957 16.1704 0.260818 15.1516 0.0801467 13.9933C-0.126578 12.9122 0.125193 11.8698 0.188014 11.6168C0.370145 10.8815 0.687658 10.2063 1.12351 9.58538C1.15419 9.54131 1.1649 9.46339 1.15029 9.41079C0.972544 8.75897 0.666231 8.16607 0.307568 7.59824C0.216502 7.45385 0.107418 7.32018 0.00661225 7.18163C0.00661225 7.1658 0.00661225 7.14949 0.00661225 7.13342C0.0268221 7.13585 0.0467884 7.13975 0.0665112 7.13975C1.27326 7.14024 2.47976 7.14072 3.6865 7.13829C3.7391 7.13829 3.79753 7.11662 3.84234 7.08788C4.69017 6.54392 5.59353 6.11294 6.54266 5.77741C7.22711 5.53587 7.92593 5.34741 8.63863 5.20935C9.32869 5.07591 10.0224 4.98192 10.7234 4.93566C12.4325 4.80418 13.7985 4.98509 14.7072 5.11244ZM13.1944 13.0822C13.1944 15.7321 15.3444 17.897 17.9848 17.8867C20.6352 17.8772 22.7755 15.7732 22.7736 13.0941C22.7716 10.3331 20.532 8.25762 17.8821 8.31143C15.266 8.36573 13.2182 10.4744 13.1944 13.0822ZM6.00868 8.29317C3.43108 8.27077 1.18365 10.422 1.2287 13.1623C1.27058 15.7177 3.37678 17.8841 6.06225 17.8609C8.68806 17.8385 10.7986 15.6943 10.8035 13.0977C10.8077 10.4301 8.67126 8.29317 6.00868 8.29317ZM6.24633 7.04308C7.70241 7.13196 8.98147 7.63939 10.0621 8.62213C11.1405 9.60291 11.7724 10.8265 12.002 12.2652C12.2382 10.8435 12.8535 9.6314 13.9117 8.66035C14.9716 7.68834 16.2336 7.17822 17.6658 7.07035C15.9663 6.3148 14.1742 5.99388 12.3295 5.95833C10.233 5.91718 8.19378 6.22617 6.24633 7.04308Z" fill="white"/>
<path d="M17.9751 10.0588C19.615 10.0561 20.9433 11.3773 20.9433 13.0155C20.9433 14.66 19.6377 15.9313 18.0973 15.99C16.3771 16.056 15.0006 14.6854 15.0011 13.0228C15.0026 11.3413 16.3888 10.031 17.9751 10.0588ZM19.9094 13.0228C19.9087 11.9539 19.0445 11.0851 17.9829 11.0851C16.9091 11.0851 16.035 11.9493 16.0306 13.015C16.0267 14.0762 16.9052 14.9591 17.969 14.962C19.0345 14.9661 19.9099 14.0898 19.9094 13.0228Z" fill="white"/>
<path d="M5.94544 10.059C7.58438 10.0573 8.91458 11.381 8.91044 13.0189C8.90581 14.6769 7.59899 15.9204 6.08569 15.9893C4.3586 16.0682 2.9651 14.6915 2.96827 13.0199C2.97168 11.3264 4.36737 10.0308 5.94544 10.059ZM7.87755 13.0165C7.87438 11.941 7.00463 11.0837 5.9189 11.0856C4.87164 11.0876 3.9941 11.9714 3.99653 13.0226C3.99921 14.0859 4.87578 14.9603 5.94252 14.9632C7.00268 14.9656 7.88022 14.0827 7.87755 13.0165Z" fill="white"/>
<path d="M17.9765 12.0391C18.52 12.0386 18.9656 12.4844 18.9605 13.0247C18.9551 13.5662 18.5171 14.005 17.9826 14.0053C17.4323 14.0053 16.9899 13.5704 16.9911 13.0315C16.9921 12.4725 17.4218 12.0395 17.9765 12.0391Z" fill="white"/>
<path d="M5.94023 12.0303C6.49198 12.0298 6.93538 12.4705 6.93757 13.0206C6.93976 13.566 6.49222 14.0138 5.94315 14.015C5.38093 14.0162 4.94727 13.5818 4.94775 13.0167C4.94775 12.4617 5.38044 12.031 5.94023 12.0303Z" fill="white"/>
</svg>
