<svg width="24" height="24" viewBox="0 0 24 24" fill="none" xmlns="http://www.w3.org/2000/svg">
<path d="M12.3021 1.70123C12.2717 1.26727 12.2007 0.250852 10.9874 0.0325907C9.78755 -0.183108 6.70882 0.717771 5.532 1.38336C5.03871 1.66241 4.67891 2.1048 4.56959 2.56695C4.4861 2.91907 4.5489 3.27484 4.74593 3.56872C5.2469 4.31524 9.31844 11.001 9.97725 11.6889C10.3955 12.1254 10.9845 12.3261 11.5613 12.1851C12.1112 12.0507 12.5409 11.6232 12.7112 11.0413C12.9796 10.1232 12.4418 3.83001 12.3021 1.70123ZM11.3582 10.6549C11.3405 10.7117 11.3013 10.8003 11.2273 10.8186C11.1585 10.8354 11.0711 10.7968 10.9937 10.7161C10.4909 10.1807 6.5171 3.7088 5.95753 2.8504C5.99544 2.7876 6.08626 2.68634 6.2245 2.60797C7.30427 1.9975 10.0042 1.28503 10.7384 1.41742C10.8049 1.42932 10.8382 1.4436 10.851 1.45019C10.8785 1.5108 10.8909 1.69024 10.8986 1.79938C10.977 2.86505 11.5173 9.84979 11.3582 10.6549Z" fill="white"/>
<path d="M3.85841 10.6473C3.56123 10.8065 3.16554 11.1599 2.96833 11.939C2.6988 13.0043 2.60084 14.9216 2.91267 16.1612C3.12177 16.9932 3.88148 17.4891 4.68348 17.3085C5.05244 17.2254 8.99946 15.9662 9.78681 15.7148C10.491 15.4899 10.9305 14.8011 10.8805 14.0007C10.8371 13.3075 10.4757 12.7858 9.86225 12.5319C7.26289 11.455 5.98225 10.9167 5.00465 10.5712C4.615 10.4333 4.20796 10.4604 3.85841 10.6473ZM4.51612 11.8919C4.52052 11.8928 4.52693 11.8945 4.53571 11.8976C5.5384 12.2521 6.94135 12.8446 9.32411 13.8317C9.39918 13.8629 9.464 13.8896 9.47645 14.0886C9.48597 14.241 9.44203 14.3479 9.3589 14.3745C7.57746 14.9435 4.64851 15.8708 4.3744 15.936C4.31379 15.9499 4.28266 15.84 4.27717 15.8181C4.05433 14.9322 4.08015 13.2808 4.33228 12.2841C4.39765 12.0256 4.4828 11.9175 4.51612 11.8919Z" fill="white"/>
<path d="M18.7649 7.26477C18.3538 6.88391 17.8495 6.68029 17.3813 6.70574C16.9984 6.72643 16.6619 6.89214 16.4079 7.18475C16.3089 7.29882 15.4106 8.49249 14.7034 9.45526C13.0205 11.7468 12.9943 11.9081 12.961 12.1125C12.8712 12.6642 13.0745 13.2554 13.4916 13.6555C13.914 14.0607 14.4914 14.2232 15.0746 14.1032C15.2511 14.067 20.0102 12.855 20.0523 12.844C20.5904 12.7032 20.8561 12.374 20.9841 12.1226C21.2086 11.682 21.1998 11.1237 20.959 10.5079C20.5428 9.44354 19.579 8.01898 18.7649 7.26477ZM19.7339 11.4703C19.7258 11.4738 19.7135 11.4782 19.6961 11.4828C19.4539 11.5461 15.037 12.6684 14.7873 12.7259C14.6595 12.7512 14.5511 12.7222 14.4655 12.6402C14.3983 12.5758 14.3553 12.4871 14.3476 12.4042C14.7375 11.7329 17.1903 8.45642 17.4681 8.11035C17.5181 8.11291 17.6549 8.15429 17.8087 8.29675C18.4673 8.90704 19.31 10.1544 19.6487 11.0203C19.7465 11.2704 19.7436 11.4205 19.7339 11.4703Z" fill="white"/>
<path d="M19.8683 16.2042C18.3796 15.7084 16.8906 15.2138 15.4014 14.7198C14.6507 14.4706 13.908 14.733 13.4636 15.4046C13.0813 15.9823 13.0608 16.6406 13.4074 17.2106C14.5657 19.1152 15.3261 20.3239 15.614 20.7936C16.0697 21.5368 16.5176 22.2912 17.3883 22.2912C17.9217 22.2912 18.3695 21.9742 18.6726 21.7215C19.5118 21.0219 20.5375 19.716 21.0077 18.7486C21.3095 18.1281 21.3666 17.6139 21.1826 17.1767C20.9211 16.5549 20.2621 16.3355 19.8683 16.2042ZM19.7425 18.1336C19.3528 18.9349 18.4688 20.0595 17.7715 20.6409C17.5571 20.8198 17.4401 20.8674 17.3987 20.8798C17.2286 20.7672 15.245 17.5246 14.6095 16.4796C14.5633 16.4036 14.536 16.3333 14.6369 16.181C14.7127 16.0665 14.7805 16.0326 14.8481 16.0326C14.8845 16.0326 14.9209 16.0425 14.9585 16.055C16.4471 16.549 17.9356 17.0432 19.4237 17.5391C19.6639 17.6191 19.8172 17.683 19.8802 17.7295C19.8767 17.7778 19.8553 17.9012 19.7425 18.1336Z" fill="white"/>
<path d="M11.4827 15.7156C10.8098 15.5418 10.2019 15.7275 9.77067 16.238C7.1843 19.3015 6.79081 19.7937 6.39549 20.3313C6.06278 20.7841 6.06278 21.2016 6.12156 21.4719C6.23069 21.974 6.62638 22.4094 7.33152 22.8029C7.97349 23.1612 8.69547 23.4577 9.53831 23.7091C10.0585 23.8643 10.6142 24 11.1227 24C12.1805 24 12.7509 23.3736 12.7535 22.4643C12.7579 21.2349 12.7564 20.7199 12.7535 17.2738C12.7529 16.5383 12.2439 15.9121 11.4827 15.7156ZM11.3388 22.5703C11.2582 22.6024 10.9473 22.6613 9.94059 22.3609C9.19737 22.1391 8.56821 21.8819 8.01707 21.5742C7.66972 21.3805 7.54887 21.2463 7.51041 21.1923C7.7642 20.7792 10.4042 17.6684 10.8457 17.1457C10.9004 17.0808 10.9438 17.0296 11.1311 17.0779C11.2698 17.1136 11.3492 17.1854 11.3494 17.2749C11.354 22.7351 11.3547 22.5057 11.3388 22.5703Z" fill="white"/>
</svg>
