<svg width="24" height="25" viewBox="0 0 24 25" fill="none" xmlns="http://www.w3.org/2000/svg">
<g clip-path="url(#clip0)">
<path d="M23.7893 9.80592C23.7261 9.47428 23.4362 9.23438 23.0986 9.23438H12C11.6117 9.23438 11.2969 9.54919 11.2969 9.9375V14.1562C11.2969 14.5446 11.6117 14.8594 12 14.8594H17.6686C17.2412 15.7192 16.6279 16.4634 15.8918 17.0463C15.8298 17.0786 15.7717 17.1207 15.7196 17.1727C15.7142 17.1781 15.7096 17.184 15.7045 17.1895C14.6439 17.9684 13.3517 18.4219 12 18.4219C8.47237 18.4219 5.625 15.5481 5.625 12.0469C5.625 8.54423 8.47392 5.67188 12 5.67188C13.3389 5.67188 14.6509 6.12623 15.7943 6.98588C16.074 7.1963 16.4663 7.16873 16.7139 6.92105L19.7144 3.92062C20.006 3.62902 19.985 3.14958 19.6689 2.88459C17.486 1.05469 14.7625 0.046875 12 0.046875C8.81203 0.046875 5.80341 1.29989 3.52823 3.57506C1.25297 5.85028 0 8.85895 0 12.0469C0 15.2348 1.25297 18.2435 3.52823 20.5187C5.80341 22.7939 8.81203 24.0469 12 24.0469C15.188 24.0469 18.1966 22.7939 20.4718 20.5187C22.747 18.2435 24 15.2348 24 12.0469C24 11.2939 23.9291 10.54 23.7893 9.80592ZM12 1.45312C14.1835 1.45312 16.3429 2.17106 18.1581 3.48816L16.1356 5.51067C14.8687 4.69425 13.4506 4.26562 12 4.26562C9.93717 4.26562 7.98745 5.07933 6.50995 6.55683C5.95453 7.1123 5.49295 7.73452 5.13309 8.40436L3.07458 6.34584C4.95919 3.40561 8.25586 1.45312 12 1.45312ZM2.37145 7.63144L4.54931 9.8093C4.33162 10.5272 4.21875 11.2792 4.21875 12.0469C4.21875 12.8146 4.33162 13.5666 4.54931 14.2845L2.37145 16.4623C1.75228 15.1174 1.40625 13.6219 1.40625 12.0469C1.40625 10.4719 1.75228 8.97633 2.37145 7.63144ZM3.07458 17.7479L5.13309 15.6894C5.49295 16.3592 5.95453 16.9815 6.50995 17.5369C7.98745 19.0144 9.93717 19.8281 12 19.8281C13.4839 19.8281 14.9074 19.4044 16.1508 18.5983L18.1907 20.6382C16.4481 21.8973 14.3093 22.6406 12 22.6406C8.25586 22.6406 4.95919 20.6881 3.07458 17.7479ZM19.2784 19.7371L17.265 17.7238C18.2395 16.8047 18.9782 15.6381 19.3786 14.3676C19.446 14.154 19.4075 13.921 19.275 13.7404C19.1426 13.5598 18.932 13.4531 18.708 13.4531H12.7031V10.6406H22.5004C22.5624 11.1052 22.5938 11.5762 22.5938 12.0468C22.5938 15.0721 21.3188 17.805 19.2784 19.7371Z" fill="white"/>
</g>
<defs>
<clipPath id="clip0">
<rect width="24" height="24" fill="white" transform="translate(0 0.046875)"/>
</clipPath>
</defs>
</svg>
