<svg width="21" height="21" viewBox="0 0 21 21" fill="none" xmlns="http://www.w3.org/2000/svg">
<path d="M14.6511 5.09842C14.6511 2.71235 12.7168 0.778054 10.3307 0.778054V0.778054C9.18172 0.773185 8.07811 1.22622 7.26392 2.03697C6.44973 2.84772 5.99204 3.94941 5.99205 5.09842H5.99205" stroke="#F9423A" stroke-width="1.5" stroke-linecap="round" stroke-linejoin="round"/>
<path fill-rule="evenodd" clip-rule="evenodd" d="M14.5137 20H6.1659C3.09954 20 0.747137 18.8925 1.41533 14.4348L2.19336 8.39363C2.60526 6.16937 4.02402 5.31812 5.26888 5.31812H15.4474C16.7105 5.31812 18.0469 6.23345 18.5229 8.39363L19.3009 14.4348C19.8684 18.3891 17.5801 20 14.5137 20Z" stroke="#F9423A" stroke-width="1.5" stroke-linecap="round" stroke-linejoin="round"/>
<path d="M13.2963 9.60183H13.2506" stroke="#F9423A" stroke-width="1.5" stroke-linecap="round" stroke-linejoin="round"/>
<path d="M7.46567 9.60183H7.41991" stroke="#F9423A" stroke-width="1.5" stroke-linecap="round" stroke-linejoin="round"/>
</svg>
